# xmcd
# Track frame offsets:
# 150
# 21187
# 39231
# 63387
# 81936
# 103236
# 120751
# 139549
# 156827
# 176017
# 198332
# 221315
# 242166
# 260946
#
# Disc length: 3678 seconds
# Revision: 0
# Processed by: cddbd v1.5.1PL2 Copyright (c) Steve Scherf et al.
# Submitted via: VisiTrax 2.9.10.228 - For more info visit www.synapsa.com
#
DISCID=be0e5c0e
DTITLE=Faith Hill - Cry
DYEAR=2002
DGENRE=Country
TTITLE0=Free
TTITLE1=Cry
TTITLE2=One
TTITLE3=When the lights go Down
TTITLE4=Beautiful
TTITLE5=Unsaveble
TTITLE6=Baby you belong
TTITLE7=If you're gonna fly away
TTITLE8=Stronger
TTITLE9=If this is the end
TTITLE10=This is me
TTITLE11=Back to you
TTITLE12=I think i will
TTITLE13=You'resill here
EXTD=
EXTT0=
EXTT1=
EXTT2=
EXTT3=
EXTT4=
EXTT5=
EXTT6=
EXTT7=
EXTT8=
EXTT9=
EXTT10=
EXTT11=
EXTT12=
EXTT13=
PLAYORDER=
